<mxfile host="65bd71144e">
    <diagram id="C5RBs43oDa-KdzZeNtuy" name="Page-1">
        <mxGraphModel dx="564" dy="174" grid="1" gridSize="10" guides="1" tooltips="1" connect="1" arrows="1" fold="1" page="1" pageScale="1" pageWidth="827" pageHeight="1169" math="0" shadow="0">
            <root>
                <mxCell id="WIyWlLk6GJQsqaUBKTNV-0"/>
                <mxCell id="WIyWlLk6GJQsqaUBKTNV-1" parent="WIyWlLk6GJQsqaUBKTNV-0"/>
                <mxCell id="kpmRjgLaAA5xpJmhZt6U-2" value="" style="edgeStyle=orthogonalEdgeStyle;rounded=0;orthogonalLoop=1;jettySize=auto;html=1;" parent="WIyWlLk6GJQsqaUBKTNV-1" target="kpmRjgLaAA5xpJmhZt6U-0" edge="1">
                    <mxGeometry relative="1" as="geometry">
                        <mxPoint x="220" y="120" as="sourcePoint"/>
                    </mxGeometry>
                </mxCell>
                <mxCell id="kpmRjgLaAA5xpJmhZt6U-9" value="yes&lt;br&gt;" style="edgeStyle=orthogonalEdgeStyle;rounded=0;orthogonalLoop=1;jettySize=auto;html=1;" parent="WIyWlLk6GJQsqaUBKTNV-1" source="WIyWlLk6GJQsqaUBKTNV-10" target="kpmRjgLaAA5xpJmhZt6U-7" edge="1">
                    <mxGeometry relative="1" as="geometry"/>
                </mxCell>
                <mxCell id="kpmRjgLaAA5xpJmhZt6U-10" value="no" style="edgeStyle=orthogonalEdgeStyle;rounded=0;orthogonalLoop=1;jettySize=auto;html=1;entryX=0;entryY=0.5;entryDx=0;entryDy=0;" parent="WIyWlLk6GJQsqaUBKTNV-1" source="WIyWlLk6GJQsqaUBKTNV-10" target="kpmRjgLaAA5xpJmhZt6U-19" edge="1">
                    <mxGeometry relative="1" as="geometry">
                        <mxPoint x="340" y="310" as="targetPoint"/>
                    </mxGeometry>
                </mxCell>
                <mxCell id="WIyWlLk6GJQsqaUBKTNV-10" value="i&amp;lt;input.length" style="rhombus;whiteSpace=wrap;html=1;shadow=0;fontFamily=Helvetica;fontSize=12;align=center;strokeWidth=1;spacing=6;spacingTop=-4;" parent="WIyWlLk6GJQsqaUBKTNV-1" vertex="1">
                    <mxGeometry x="145" y="275" width="145" height="70" as="geometry"/>
                </mxCell>
                <mxCell id="kpmRjgLaAA5xpJmhZt6U-4" value="" style="edgeStyle=orthogonalEdgeStyle;rounded=0;orthogonalLoop=1;jettySize=auto;html=1;exitX=1;exitY=0.5;exitDx=0;exitDy=0;" parent="WIyWlLk6GJQsqaUBKTNV-1" source="kpmRjgLaAA5xpJmhZt6U-19" edge="1">
                    <mxGeometry relative="1" as="geometry">
                        <mxPoint x="460" y="310" as="sourcePoint"/>
                        <mxPoint x="510" y="310" as="targetPoint"/>
                        <Array as="points"/>
                    </mxGeometry>
                </mxCell>
                <mxCell id="kpmRjgLaAA5xpJmhZt6U-1" style="edgeStyle=orthogonalEdgeStyle;rounded=0;orthogonalLoop=1;jettySize=auto;html=1;exitX=0.5;exitY=1;exitDx=0;exitDy=0;entryX=0.5;entryY=0;entryDx=0;entryDy=0;" parent="WIyWlLk6GJQsqaUBKTNV-1" source="kpmRjgLaAA5xpJmhZt6U-0" target="WIyWlLk6GJQsqaUBKTNV-10" edge="1">
                    <mxGeometry relative="1" as="geometry"/>
                </mxCell>
                <mxCell id="kpmRjgLaAA5xpJmhZt6U-0" value="string[] input,&lt;br&gt;string[] output,&lt;br&gt;int i=0,&lt;br&gt;int j=0,&lt;br&gt;int n=3" style="shape=parallelogram;perimeter=parallelogramPerimeter;whiteSpace=wrap;html=1;fixedSize=1;" parent="WIyWlLk6GJQsqaUBKTNV-1" vertex="1">
                    <mxGeometry x="120" y="150" width="200" height="100" as="geometry"/>
                </mxCell>
                <mxCell id="kpmRjgLaAA5xpJmhZt6U-5" value="final" style="ellipse;whiteSpace=wrap;html=1;" parent="WIyWlLk6GJQsqaUBKTNV-1" vertex="1">
                    <mxGeometry x="510" y="285" width="80" height="50" as="geometry"/>
                </mxCell>
                <mxCell id="kpmRjgLaAA5xpJmhZt6U-6" value="start" style="ellipse;whiteSpace=wrap;html=1;" parent="WIyWlLk6GJQsqaUBKTNV-1" vertex="1">
                    <mxGeometry x="160" y="70" width="115" height="50" as="geometry"/>
                </mxCell>
                <mxCell id="kpmRjgLaAA5xpJmhZt6U-11" value="yes" style="edgeStyle=orthogonalEdgeStyle;rounded=0;orthogonalLoop=1;jettySize=auto;html=1;entryX=0.5;entryY=0;entryDx=0;entryDy=0;" parent="WIyWlLk6GJQsqaUBKTNV-1" source="kpmRjgLaAA5xpJmhZt6U-7" target="kpmRjgLaAA5xpJmhZt6U-12" edge="1">
                    <mxGeometry relative="1" as="geometry">
                        <mxPoint x="218" y="500" as="targetPoint"/>
                    </mxGeometry>
                </mxCell>
                <mxCell id="kpmRjgLaAA5xpJmhZt6U-16" value="no" style="edgeStyle=orthogonalEdgeStyle;rounded=0;orthogonalLoop=1;jettySize=auto;html=1;" parent="WIyWlLk6GJQsqaUBKTNV-1" source="kpmRjgLaAA5xpJmhZt6U-7" target="kpmRjgLaAA5xpJmhZt6U-15" edge="1">
                    <mxGeometry relative="1" as="geometry">
                        <Array as="points">
                            <mxPoint x="130" y="430"/>
                            <mxPoint x="130" y="430"/>
                        </Array>
                    </mxGeometry>
                </mxCell>
                <mxCell id="kpmRjgLaAA5xpJmhZt6U-7" value="input[i]length&amp;lt;=n" style="rhombus;whiteSpace=wrap;html=1;" parent="WIyWlLk6GJQsqaUBKTNV-1" vertex="1">
                    <mxGeometry x="137.5" y="390" width="160" height="80" as="geometry"/>
                </mxCell>
                <mxCell id="kpmRjgLaAA5xpJmhZt6U-14" value="" style="edgeStyle=orthogonalEdgeStyle;rounded=0;orthogonalLoop=1;jettySize=auto;html=1;" parent="WIyWlLk6GJQsqaUBKTNV-1" source="kpmRjgLaAA5xpJmhZt6U-12" target="kpmRjgLaAA5xpJmhZt6U-13" edge="1">
                    <mxGeometry relative="1" as="geometry"/>
                </mxCell>
                <mxCell id="kpmRjgLaAA5xpJmhZt6U-12" value="ouput[j]=input[i]" style="rounded=0;whiteSpace=wrap;html=1;" parent="WIyWlLk6GJQsqaUBKTNV-1" vertex="1">
                    <mxGeometry x="157.5" y="520" width="120" height="60" as="geometry"/>
                </mxCell>
                <mxCell id="kpmRjgLaAA5xpJmhZt6U-17" value="" style="edgeStyle=orthogonalEdgeStyle;rounded=0;orthogonalLoop=1;jettySize=auto;html=1;" parent="WIyWlLk6GJQsqaUBKTNV-1" source="kpmRjgLaAA5xpJmhZt6U-13" target="kpmRjgLaAA5xpJmhZt6U-15" edge="1">
                    <mxGeometry relative="1" as="geometry"/>
                </mxCell>
                <mxCell id="kpmRjgLaAA5xpJmhZt6U-13" value="j++" style="rounded=0;whiteSpace=wrap;html=1;" parent="WIyWlLk6GJQsqaUBKTNV-1" vertex="1">
                    <mxGeometry x="30" y="530" width="70" height="40" as="geometry"/>
                </mxCell>
                <mxCell id="kpmRjgLaAA5xpJmhZt6U-18" style="edgeStyle=orthogonalEdgeStyle;rounded=0;orthogonalLoop=1;jettySize=auto;html=1;exitX=0.5;exitY=0;exitDx=0;exitDy=0;entryX=0;entryY=0.5;entryDx=0;entryDy=0;" parent="WIyWlLk6GJQsqaUBKTNV-1" source="kpmRjgLaAA5xpJmhZt6U-15" target="WIyWlLk6GJQsqaUBKTNV-10" edge="1">
                    <mxGeometry relative="1" as="geometry"/>
                </mxCell>
                <mxCell id="kpmRjgLaAA5xpJmhZt6U-15" value="i++" style="rounded=0;whiteSpace=wrap;html=1;" parent="WIyWlLk6GJQsqaUBKTNV-1" vertex="1">
                    <mxGeometry x="30" y="410" width="70" height="40" as="geometry"/>
                </mxCell>
                <mxCell id="kpmRjgLaAA5xpJmhZt6U-19" value="output" style="rounded=0;whiteSpace=wrap;html=1;" parent="WIyWlLk6GJQsqaUBKTNV-1" vertex="1">
                    <mxGeometry x="350" y="287.5" width="100" height="45" as="geometry"/>
                </mxCell>
            </root>
        </mxGraphModel>
    </diagram>
</mxfile>